<?xml version="1.0" encoding="UTF-8"?>
<svg id="Layer_1" xmlns="http://www.w3.org/2000/svg" viewBox="0 0 1581 515">
  <defs>
    <style>
      .cls-1 {
        fill: #f9f9f9;
      }
    </style>
  </defs>
  <path class="cls-1" d="M317,515H0C0,363.67,0,212.33,0,61c1.25-1.86,2.76-3.59,3.7-5.59,2.66-5.64,5.11-11.37,7.6-17.09C16.88,25.55,22.44,12.77,28,0h4c-1.16,31.35,1.54,62.73-1.92,94.13-1.78,16.19.56,32.8.64,49.23.09,17.28,6.57,33.17,10.28,49.65,2.38,10.59,5.8,20.94,8.6,31.43,5.71,21.43,11.09,42.96,17.03,64.32,2.98,10.73,6.63,21.3,10.48,31.76,2.32,6.3,5.5,12.3,8.58,18.28.62,1.2,2.52,1.74,3.83,2.59.71-1.13,1.81-2.18,2.07-3.4.67-3.17,1.42-6.43,1.35-9.64-.17-7.12-1.25-14.23-1.2-21.33.08-10.28.37-20.59,1.43-30.8,1.05-10.13,2.92-20.2,4.89-30.21,2.07-10.49,4.62-20.89,7.08-31.29,2.62-11.11,5.39-22.18,8.09-33.26,2.1,5.82,2.66,11.72,4.16,17.36,5.2,19.52,9.85,39.26,16.4,58.34,5.66,16.47,13.04,32.43,20.72,48.09,7.03,14.35,15.82,27.82,23.21,42,7.83,15.01,14.39,30.7,22.47,45.56,9.16,16.86,19.05,33.34,29.25,49.6,8.28,13.21,17.47,25.84,27.21,40.12,1.57-2.77,3.07-4.27,3.2-5.88.36-4.5-.1-9.08.23-13.58.7-9.38,1.15-18.82,2.71-28.07,2.81-16.66,6.07-33.26,9.7-49.77,2.53-11.5,6-22.8,9.06-34.19.81-3.03,1.63-6.05,2.44-9.07.41.06.82.11,1.22.17v4.7c0,10.66-.45,21.35.15,31.98.44,7.82,1.83,15.66,3.59,23.3,2.43,10.55,5.87,20.87,8.42,31.39,3.87,15.96,7.25,32.04,11.05,48.02,2.66,11.2,5.68,22.31,8.54,33.47Z"/>
  <path class="cls-1" d="M156,0c2.32,11.81,5.38,23.53,6.8,35.45,2.03,17.08,3.01,34.28,4.18,51.45.89,13.07.55,26.28,2.24,39.23,2.14,16.35,5.59,32.54,8.87,48.71,1.37,6.75,3.64,13.33,5.7,19.93,3.47,11.15,7.19,22.22,10.63,33.38,1.84,5.97,3.14,12.11,5.02,18.07,2.52,8.01,5.24,15.97,8.1,23.86,4.77,13.18,9.37,26.44,14.68,39.41,5.37,13.12,11.58,25.89,17.27,38.88,1.11,2.53,1.16,5.54,2.38,7.99.98,1.96,3.17,4.92,4.5,4.76,2.79-.34,5.45-2.38,5.28-6.07-.43-9.11-.16-18.33-1.49-27.31-1.79-12.19-1.73-24.19,1.16-36.07,2.38-9.75,4.96-19.52,8.45-28.92,5.46-14.69,11.98-28.99,17.62-43.62,4.6-11.94,8.57-24.13,12.8-36.21,4.08-11.65,8.15-23.31,12.46-35.64,1.34,2.11,2.83,3.71,3.48,5.6,5.62,16.42,10.47,33.06,10.5,50.62.08,45.65-.08,91.29.08,136.94.06,15.88.69,31.76,1.31,47.63.13,3.24,1.35,6.44,2.14,9.65,5.21,21.17,10.44,42.33,15.65,63.5,4.41,17.93,8.81,35.86,13.21,53.79h-26c-.85-4-1.64-8.02-2.57-12-3.12-13.29-6.24-26.58-9.48-39.84-2.11-8.64-4.47-17.21-6.63-25.83-2.68-10.69-5.07-21.45-7.96-32.08-2.99-11.03-5.64-22-5.42-33.61.29-16.13,1.48-32.39-3.85-48.63-1,.9-2.57,1.69-3.18,2.94-2.29,4.73-4.59,9.5-6.3,14.46-5.65,16.36-10.32,32.92-12.93,50.14-3.29,21.64-9.51,42.81-10.47,64.84-.1,2.28-.63,4.54-1.18,8.26-8.31-11.39-15.96-21.49-23.16-31.9-5.05-7.29-9.85-14.79-14.1-22.56-4.4-8.04-7.69-16.68-12.01-24.76-9.65-18.06-19.74-35.88-29.45-53.91-6.31-11.72-12.39-23.57-18.34-35.48-3.75-7.51-7.59-15.04-10.45-22.9-5.06-13.9-9.64-27.99-13.96-42.14-3.02-9.9-5.62-19.97-7.77-30.1-1.78-8.37-2.42-16.97-3.99-25.39-1.03-5.54-2.79-10.94-4.23-16.41-.57-.01-1.14-.02-1.71-.03-.67,1.33-1.59,2.59-1.98,4-1.84,6.66-3.54,13.35-5.27,20.04-1.53,5.89-3.26,11.74-4.52,17.68-2.41,11.44-3.99,23.07-6.91,34.37-5.24,20.23-10.08,40.42-9.29,61.55.26,6.9.04,13.81.04,20.72-1.49-.62-2.19-1.42-2.56-2.36-2.97-7.5-6.04-14.97-8.76-22.57-3-8.37-6.03-16.77-8.4-25.33-4.24-15.37-8.08-30.85-11.92-46.33-3.05-12.29-6.02-24.6-8.71-36.97-2.31-10.61-4.24-21.31-6.25-31.98-1.49-7.94-3.78-15.87-4.02-23.86-.42-13.74.39-27.52.83-41.28.49-15.26,1.33-30.51,1.68-45.77.31-13.32.15-26.65.2-39.98,17,0,34,0,51,0-.24,1.14-.58,2.27-.69,3.42-1.4,14.16-2.95,28.31-4.06,42.49-.76,9.68-.94,19.41-1.27,29.13-.13,3.78.17,7.57.05,11.34-.16,4.92-1.01,9.87-.61,14.73.16,1.89,2.64,4.23,4.61,5.06.94.4,4.06-1.91,4.67-3.55,3.34-8.97,6.27-18.1,9.21-27.21,2.85-8.85,4.56-18.12,10.57-25.69,10.13-12.74,20.2-25.54,30.23-38.37C144.58,7.66,147.24,3.79,150,0c2,0,4,0,6,0Z"/>
  <path class="cls-1" d="M534,515c.03-7.31-.14-14.62.16-21.92.16-3.93-.4-5.94-5.07-6.44-5.55-.6-11.03-2.32-16.38-4.05-6.73-2.17-10.06-7.27-10.7-14.22-.46-4.94-.92-9.89-1.47-15.76-2.77,0-6.05.69-8.89-.12-14.41-4.1-25.26-12.56-30.35-27.09-5.78-16.53-7.25-33.65-7.1-51.1.15-16.59-1.8-33.27-.71-49.77.93-14.1,5.68-27.66,15.6-38.62.56-.62.99-1.53,1.68-1.82,6.98-2.93,5.13-8.74,5.27-14.32.19-7.72.4-15.67,2.34-23.07,6.05-23.11,20.88-40.68,38.38-55.96,10.55-9.22,21.23-18.18,29.69-29.44,1.56-2.08,3.14-4.15,5.31-7.01-19.14.22-29.27-9.65-32.36-26.73-2.45-13.56.97-24.86,14.9-29.19-1.71-10.24-5.01-20.03-4.59-29.66.77-17.93,9.74-32.07,26.04-40.33,7.44-3.77,16.05-3.41,24-1.38,12.21,3.11,22.36,10.24,31.13,19.1,3.19,3.22,5.38,7.43,7.69,10.72,5.07-1.64,9.5-3.53,14.13-4.48,10.18-2.09,17.5,3.24,24.02,10.16,6.33,6.71,5.45,14.49,3.45,22.51-2.2,8.86-2.26,9.22,6.26,12.44,16.59,6.26,30.22,16.49,41.97,29.56,1.24,1.38,3.18,2.41,4.99,2.93,15.12,4.32,24.9,13.89,31.37,28.3,6.02,13.42,6.64,26.89,4.95,40.94-.13,1.1-.02,2.23-.02,2.77,7.43.74,14.48,1.55,21.56,2.03,1.36.09,2.88-.93,4.19-1.69,16.02-9.2,32.68-15.17,51.28-8.85,10.1,3.43,15.62,11.49,18.83,21.2,4.39,13.26.56,27.1-11.58,34.37-1.13.68-1.84,2.58-2.15,4.04-2.79,12.95-8.84,23.54-19.59,31.91-17.99,14.02-38.77,14.66-59.89,13.89-9.68-.35-19.32-2-29.32-3.11.52,2.37,1.39,5.34,1.8,8.38,1.38,10.2,2.57,20.43,3.9,30.65.21,1.6.36,3.42,1.21,4.69,12.41,18.48,14.99,39.51,15.74,60.95.13,3.74.48,6.01,4.76,7.09,5.97,1.51,9.29,6.39,11.08,11.96,1.72,5.33,2.73,10.89,4.17,16.86,3.31-.23,7.04-.53,10.78-.74,11.31-.63,17.97,7.03,21.5,14.89,3.23,7.19-1.36,16.37-8.56,22.78-11.74,10.44-25.78,14.79-41.42,16.78v24.99h-6c.01-7.47.13-14.94-.05-22.4-.04-1.53-.78-3.65-1.93-4.45-4.41-3.07-9.12-5.71-13.99-8.67-2.01,6.55-7.04,10.28-13.4,12.53-2.93,1.04-3.86,3.04-3.73,6.11.23,5.62.09,11.25.1,16.87h-6v-17.56c-3.8,1.22-6.53,2.1-9,2.89v14.67h-7v-14.03c-9.07.67-17.69,2.46-24-7.37v21.4h-6c-.32-11.83.75-23.77-2.19-35.43-9.01.87-17.45,1.55-25.82,2.66-1.16.15-2.9,2.52-2.89,3.84.09,9.64.55,19.28.9,28.92h-6c-.27-5.64-.55-11.28-.8-16.92-.17-3.82-.33-7.64-.46-11.46-.08-2.38-.9-3.52-3.65-3.39-8.64.39-17.3.4-25.95.73-5.06.19-10.11.71-14.13,1v30.03h-6c-.35-6.78-.65-13.56-1.06-20.33-.19-3.07.51-7.39-1.18-8.85-1.68-1.45-5.85-.11-8.92.16-5.89.52-11.77,1.16-18.84,1.86v27.16h-6ZM565.74,153.81c0,9.74.15,18.69-.03,27.63-.53,27.19,3.44,54.63-3.78,81.44-5.31,19.7-12.84,37.96-35.33,44.14-1.05.29-2.38,1.89-2.47,2.97-.55,6.95-1.11,13.93-1.06,20.89.08,13.45.39,26.91.92,40.35.54,13.67,4.58,26.46,12.01,37.86,8.8,13.49,19.71,25.03,34.28,32.56,14.2,7.34,29.41,10.56,45.13,8.35,10.91-1.54,21.55-5.11,32.22-8.08,3.41-.95,5.47-.35,6.64,2.97.6,1.7,1.4,3.37,1.68,5.13,2.28,13.98,6.45,27.33,12.72,40.05,1.73,3.52,4.04,4.93,8.13,5.15,14.47.8,26.98-4.58,38.88-11.75,7.51-4.52,7.08-14.8-.39-19.31-5.74-3.47-11.49-2.39-16.19,1.39-3.75,3.01-6.21,7.58-9.53,11.2-1.01,1.1-2.94,1.35-4.46,1.99-.32-1.52-1.4-3.46-.83-4.48,2.15-3.87,4.02-9.02,7.49-10.8,9.01-4.64,7.54-12.13,7.17-19.56-.14-2.79-1-5.55-1.41-8.34-1.79-12.28-9.44-18.73-20.99-21.66-21.03-5.32-40.27-.71-57.88,10.95-7.02,4.64-12.62,5.6-20.51,1.49-9.85-5.14-17.84-11.56-20.77-22.16-3.25-11.73-5.34-23.82-7.2-35.87-1.29-8.33-1.52-16.84-1.86-25.29-.12-3.08.52-6.29,1.39-9.27.33-1.12,2.27-1.78,3.48-2.65.8,1.43,2.16,2.81,2.28,4.29.2,2.59-.55,5.24-.56,7.86-.07,17.32,2.48,34.19,6.38,51.14,3.28,14.24,10.6,23.09,23.88,27.73,1.44.5,3.47.93,4.65.31,6.42-3.4,12.66-7.13,19.28-10.93-1.42-.67-2.45-1.16-3.49-1.65-8.01-3.81-15.11-8.85-18.47-17.34-6.15-15.52-12.74-30.97-14.05-47.92-.28-3.59-.42-7.27.13-10.79.22-1.39,2.5-2.46,3.84-3.68.69,1.48,1.78,2.9,1.97,4.44.35,2.79,0,5.66.23,8.47,1.29,15.76,6.7,30.39,13.03,44.63,2.12,4.77,5.58,9.91,9.87,12.51,5.95,3.6,13.59,7.59,19.93,6.79,18.98-2.39,36.99-2.79,53.54,9.45,6.45-9.38,14.65-16.69,24.89-21.6.65-.31,1.33-1.2,1.44-1.91,1.36-9.32,3.5-18.65,3.66-28,.15-8.87-1.67-17.79-2.86-26.66-1.86-13.96-3.93-27.89-5.87-41.83-.52-3.76-2.43-6.11-5.96-7.78-4.02-1.9-7.93-4.26-11.37-7.04-2.15-1.74-3.62-2.04-6.14-1.06-6.12,2.38-12.51,3.76-18.96,1.49-1.63-.57-2.76-2.59-4.12-3.94,1.68-.67,3.31-1.73,5.05-1.93,4.7-.54,9.56-.16,14.14-1.15,11.47-2.47,17.84-10.5,21.7-21.07.44-1.21,2.32-1.89,3.53-2.81.75,1.27,2.22,2.62,2.09,3.79-.29,2.53-.92,5.29-2.28,7.39-3.22,4.99-6.95,9.65-10.73,14.8,9.25,6.37,19.19,12.31,30.37,13.71,13.06,1.63,26.41,1.14,39.64,1.23,13.09.09,24.49-4.69,35.02-12.37,8.49-6.2,13-14.51,15.97-24.91-2.17.76-3.77,1.12-5.18,1.84-11.56,5.83-23.63,5.61-35.97,3.39-13.5-2.44-24.89-13.28-23.54-28.05.67-7.37,3.6-14.53,5.68-22.43-5.11,0-11.32-.97-17.11.19-15.41,3.09-29.64,9.62-43,17.76-8.49,5.17-16.34,11.37-24.66,16.84-1.23.81-3.44.11-5.2.12.49-1.68.48-3.88,1.57-4.93,2.59-2.49,5.7-4.42,8.13-6.24-5.09-7.54-9.8-14.71-14.71-21.73-8.43-12.07-8.92-25.65-6.39-39.22,3.05-16.39,9.24-31.33,26.16-38.55,3.58-1.53,7.45-2.39,11.55-3.67-11.9-14.41-26.97-23.01-43.87-28.72-.98-.33-3.24.88-3.8,1.95-7.27,13.96-18.37,24.19-31.19,32.9-12.24,8.32-25,15.04-40.2,15.88-5.94.33-11.85,1.2-17.38,1.78ZM479.53,284.71c-2.07,1.78-4.02,3.11-5.54,4.82-9.65,10.89-14.11,24.16-14.8,38.21-.7,14.38.91,28.85.82,43.28-.09,15.53,1.16,30.8,4.85,45.94,3.67,15.06,12.64,24.89,27.32,29.54,5.72,1.81,9.57-.47,11.55-6.09,1.03-2.94,2.35-5.84,3.99-8.48,4.42-7.1,10.44-12.41,18.31-15.51,3.89-1.53,5.12-3.21,2.74-7.77-3.81-7.29-7.79-15.02-9.08-22.99-3.61-22.2-3.59-44.66-1.74-67.1.28-3.39.04-6.81.04-10.68-19.1,2.05-30.63-7.35-38.46-23.15ZM555.16,148.4c5.62-.45,11.23-1.09,16.85-1.32,15.78-.64,30.54-4.09,43.99-13.06,18.71-12.48,34.09-27.02,38.61-50.41,2.16-11.2,1.23-15.36-7.9-22.02-.27-.2-.55-.37-.82-.57-6.38-4.64-17.21-4.02-22.84,1.41-.87.84-2.09,2.38-1.83,3.17,2.56,8.02-2.43,12.44-7.72,16.69-9.39,7.55-20.44,11.41-32.06,13.62-13.71,2.61-27.52,4.72-41.27,7.15-7.3,1.29-13.78,4.42-14.93,12.43-1.51,10.56.41,20.39,9.15,27.97,6.22,5.39,13.51,4.53,20.77,4.93ZM654.68,473.06c-1.52-7.1-2.98-13.34-4.16-19.63-.78-4.13-2.12-5.16-6.7-3.84-10.47,3.01-21.15,6.5-31.89,7.07-21.3,1.14-41.17-4.62-57.92-18.44-6.24-5.15-11.5-11.47-17.3-17.16-.91-.89-2.7-2.06-3.49-1.72-11.31,4.85-21.58,11.31-24.14,24.36-1.48,7.49-.99,15.4-1.12,23.12-.1,6.01,3.5,9.34,8.96,11.03,8.65,2.68,17.5,3.82,26.53,3.2,10.43-.72,20.84-1.85,31.28-2.4,19.92-1.05,39.87-1.65,59.78-2.78,6.73-.38,13.39-1.84,20.17-2.81ZM730.34,456.56c-.35.04-.69.08-1.04.12.47,4.12,1.48,8.27,1.27,12.36-.26,4.95,2.05,7.97,5.95,9.89,3.79,1.87,7.99,4.59,11.84,4.34,15.32-.98,28.92-6.57,39.95-17.72,3.79-3.83,5.45-8.81,3.45-13.17-2.23-4.86-5.63-10.29-12.2-10.31-5.06-.02-10.21.66-15.17,1.72-8.52,1.83-12.8,8.86-17.6,15.23-.9,1.19-3.09,1.41-4.68,2.08-.19-1.72-1.17-4-.43-5.06,3.32-4.72,6.32-10.48,10.98-13.22,5.84-3.42,6.15-7.66,5.28-12.72-1.71-9.93-4.58-16.49-12.06-17.4-1.41-.17-3.31.43-4.39,1.36-4.11,3.56-8.06,7.32-11.89,11.17-1.14,1.15-2.53,2.94-2.4,4.31.83,9.02,2.04,18.01,3.13,27.01ZM609.62,54.78c-1.15-2-1.6-3.34-2.48-4.23-7.7-7.73-16.26-14.43-26.91-17.25-8.56-2.26-17.39-2.48-25.56,2.21-12.4,7.11-25.52,30.76-17.31,49.03,1.45,3.22,1.76,3.92,5.34,1.88,13.74-7.85,27.65-15.44,41.87-22.37,7.78-3.8,16.3-6.08,25.06-9.26ZM741.62,173.35c.39-.18.78-.36,1.18-.54,0-.93.31-2.01-.05-2.77-3.4-7.14-5.93-14.94-10.57-21.18-14.78-19.88-40.11-15.04-52.31.93-9.01,11.8-11.22,25.88-10.31,39.6,1.06,16.07,11.01,28.61,22.39,40.08,3.26-3.53,6.07-6.59,8.88-9.65-18.02-16.64-16.29-41.63-7.06-56.06,4.74-7.42,11.12-13.75,20.61-12.54,10.66,1.36,20.27,5.48,24.21,17.1.61,1.81,2,3.35,3.04,5.02ZM732.62,356.87c-.5.15-.99.31-1.49.46.28,2.77,1.02,5.59.74,8.3-.96,9.51-2.01,19.03-3.65,28.44-.4,2.29-2.96,4.49-4.99,6.17-5.98,4.93-12.31,9.43-18.25,14.41-2.68,2.24-3.66,5.06-1.27,8.67,2.31,3.5,5.36,2.96,8.37,2.44,2.75-.47,5.47-1.45,8.02-2.61,12.47-5.66,21.05-14.41,19.15-29.61-.82-6.55-1.43-13.14-2.59-19.63-1.02-5.74-2.67-11.37-4.04-17.04ZM723.9,461.19c-.79-10.21-1.6-20.67-2.4-30.89-6.73.85-12.26,1.55-18.02,2.28.48,3.67,1.06,7.42,1.44,11.19.39,3.93.58,7.89.78,10.68,6.3,2.34,11.76,4.36,18.2,6.75Z"/>
  <path class="cls-1" d="M1298,515c2.18-10.17,4.68-20.28,6.43-30.52,1.47-8.63,1.35-17.58,3.25-26.09,1.7-7.6,4.66-15.05,8.02-22.12,7.6-16.01,15.96-31.66,23.68-47.61,5.9-12.18,12.06-24.33,16.73-37,4.65-12.62,7.62-25.86,11.2-38.87.56-2.04.66-4.25.66-6.38.04-27.82.03-55.64.03-83.45v-5.26c.56-.22,1.12-.45,1.68-.67,2.52,4.01,5.57,7.8,7.46,12.09,3.38,7.68,6.4,15.57,8.94,23.56,4.18,13.15,8.51,26.31,11.62,39.73,4.88,21.01,9.74,42.11,12.76,63.44,1.69,11.96-.22,24.46-.77,36.7-.31,6.78-1.64,13.54-1.5,20.29.05,2.48,2.5,5.76,4.78,7.14,2.77,1.68,5.25-.58,6.64-3.45,1.07-2.21,3.06-4.34,3.16-6.58.36-7.35,4.18-13.14,8-18.8,8.1-11.99,16.64-23.68,25.01-35.49,5.06-7.14,9.82-14.51,15.27-21.33,7.53-9.42,15.46-18.54,23.45-27.58,9.39-10.63,18.98-21.09,28.61-31.52,2.98-3.23,6.33-6.1,10.52-10.1,1.53,13.25,3.16,25.44,4.27,37.69.89,9.73.08,19.73,1.95,29.23,2.12,10.77,5.7,21.4,9.86,31.59,7.64,18.73,20.51,34.45,31.3,51.35v100h-30c-3.52-9.57-6.7-19.28-10.65-28.67-5.75-13.69-12.35-27.03-18.05-40.74-6.32-15.19-12.03-30.63-18.05-45.95-2.36-6.01-4.83-11.97-7.57-18.72-3.48,2.64-5.87,4.11-7.85,6.02-6.01,5.78-11.79,11.79-17.78,17.59-17.81,17.25-27.6,39.22-36.25,61.8-6.18,16.13-11.87,32.45-17.78,48.68h-12c-2.19-7.58-4.48-15.14-6.53-22.75-1.28-4.76-2.47-9.57-3.22-14.44-1.21-7.82-1.86-15.73-3.05-23.56-1.37-8.96-3.11-17.86-4.63-26.8-.88-5.18-1.98-10.35-2.36-15.57-.48-6.63-.13-13.32-.58-19.95-.13-1.86-1.81-3.62-2.78-5.42-1.5.84-3.36,1.37-4.44,2.59-2.05,2.31-3.9,4.89-5.41,7.59-2.64,4.73-5.04,9.61-7.42,14.48-8.26,16.91-16.89,33.66-24.58,50.82-7.82,17.45-14.7,35.32-22,53h-20Z"/>
  <path class="cls-1" d="M1544,515h-120c5.02-13.19,10.04-26.37,15.07-39.55,4.26-11.16,7.7-22.74,13.02-33.37,6.87-13.74,16.54-25.73,27.98-36.12,4.75-4.32,9.79-8.32,15.62-13.24.89,4.24,1.06,7.08,2.07,9.58,9.9,24.37,19.94,48.69,29.94,73.01,2.51,6.09,5.06,12.16,7.56,18.26,2.93,7.14,5.82,14.3,8.73,21.44Z"/>
  <path class="cls-1" d="M1072,515c5.06-8.69,9.87-17.55,15.26-26.04,7.1-11.18,15.12-21.78,21.88-33.14,7.38-12.41,13.74-25.42,20.62-38.13,4.33-8.02,8.79-15.97,13.15-23.89,5.69,20.11,4.52,40.48,4.78,60.79.13,10.07.32,20.31,2.2,30.14,1.97,10.3,5.99,20.2,9.12,30.27h-30c.97-8.76-.1-16.95-5.25-24.54-3.28-4.83-5.39-5.61-9.48-1.5-7.38,7.43-12.94,16.05-16.27,26.04h-26Z"/>
  <path class="cls-1" d="M1397,515h-71c9.27-20.04,18.55-40.07,27.8-60.12,5.6-12.14,11.19-24.28,16.67-36.46,2.38-5.3,4.49-10.72,6.72-16.08.45.06.91.13,1.36.19.1,1.85.32,3.71.28,5.56-.29,11.31.96,22.3,3.98,33.34,3.03,11.07,5.08,22.59,5.93,34.03,1.01,13.65,4.52,26.57,8.26,39.54Z"/>
  <path class="cls-1" d="M385,515c2.66-6.4,5.18-12.87,8.01-19.2,6.24-13.95,10.89-28.38,14.09-43.31.58-2.69,1.68-5.26,2.9-8.99,2.2,5.52,4.26,9.85,5.66,14.39,2.03,6.58,3.52,13.33,5.37,19.97,2.74,9.82,5.63,19.59,8.37,29.41.7,2.53,1.06,5.15,1.58,7.72h-46Z"/>
  <path class="cls-1" d="M0,49C0,32.67,0,16.33,0,0c7,0,14,0,21,0-1.66,4.11-3.23,8.25-4.99,12.31C10.71,24.56,5.34,36.77,0,49Z"/>
  <path class="cls-1" d="M1108,515c3.6-6.02,7.2-12.04,11.34-18.96,4,6.42,2.99,13.05,4.66,18.96h-16Z"/>
  <path class="cls-1" d="M1238,515c5.51-6.46,9.33-6.46,16,0h-16Z"/>
  <path class="cls-1" d="M887.46,31.41h22.05v46.06c1.53-1.88,2.23-2.62,2.79-3.44,10.44-15.21,35.61-16.57,47.52-2.52,4.48,5.28,6.73,11.67,6.84,18.38.32,19.12.11,38.25.11,57.75h-22.78c0-12.89.05-25.67-.03-38.44-.03-5.14.15-10.37-.67-15.41-1.39-8.47-6.5-12.6-14.62-12.84-8.92-.26-15.69,4.32-17.65,12.27-.71,2.87-.98,5.91-1,8.88-.1,15.12-.04,30.23-.04,45.63h-22.54V31.41Z"/>
  <path class="cls-1" d="M1482.24,121.93c-1.75,10.95-7.5,18.2-16.52,22.99-32.14,17.09-64.9-3.83-63.99-40.81.36-14.85,4.47-28.17,17.6-36.57,13.98-8.94,29.06-9.19,43.71-1.81,13.84,6.97,19.19,19.57,19.91,34.47.15,3.11.02,6.24.02,9.81h-58.96c.25,8.72,2.2,16.11,9.92,20.37,7.09,3.91,14.34,3.58,21.32-.65.85-.51,2.01-1.05,2.3-1.84,2.68-7.32,8.83-5.95,14.46-5.95,3.15,0,6.3,0,10.23,0ZM1460.81,96c-1.38-12.26-8.79-18.92-19.42-17.97-9.72.86-16.78,8.53-16.27,17.97h35.69Z"/>
  <path class="cls-1" d="M1342.9,147.73h-22.58V63.3h21.41v13.45c5.08-6.75,10.62-11.9,18.91-13.88,19.94-4.75,36.15,5.42,37.75,25.76,1.38,17.54.43,35.27.51,52.91,0,1.96,0,3.93,0,6.16h-22.9v-5.23c0-14.82.13-29.64-.04-44.45-.15-13.51-10.35-20.62-22.54-15.97-6.49,2.48-10.41,8.48-10.47,16.6-.1,14.48-.04,28.97-.05,43.45,0,1.79,0,3.58,0,5.62Z"/>
  <path class="cls-1" d="M1207.3,87.89h-20.46c-3.79-9.57-13.1-13.64-22.62-9.25-2.6,1.2-5.17,4.38-5.94,7.15-1,3.58,2.01,6.31,5.38,7.34,6.17,1.89,12.51,3.25,18.75,4.93,4.32,1.16,8.66,2.31,12.88,3.77,19.05,6.62,17.33,29.78,5.61,39.36-14.18,11.59-42.78,12.02-57.18.55-5.99-4.77-9.27-11.06-9.73-19.41,6.84,0,13.3-.14,19.74.13,1.12.05,2.71,1.66,3.16,2.89,3.98,10.81,22.42,10.13,27.73,4.71,4.03-4.11,2.94-9.88-2.88-11.93-6.39-2.25-13.16-3.36-19.68-5.26-4.59-1.34-9.33-2.62-13.52-4.85-16.26-8.67-17.34-30.98-1.53-40.45,15.88-9.52,32.66-9.43,48.83-.24,7.54,4.28,11.32,11.39,11.47,20.54Z"/>
  <path class="cls-1" d="M1000.93,122.35c6.93,0,13.4-.14,19.85.14,1.11.05,2.66,1.7,3.13,2.94,4.05,10.8,22.51,10.05,27.75,4.62,3.99-4.14,2.88-9.86-2.97-11.91-6.39-2.24-13.17-3.35-19.69-5.25-4.59-1.34-9.33-2.63-13.51-4.87-16.24-8.69-17.26-31.01-1.43-40.46,15.9-9.48,32.65-9.35,48.85-.2,7.64,4.31,11.19,11.64,11.16,20.56-1.11.08-2.24.24-3.37.24-5.64.03-11.29.01-16.77.01-3.86-10.04-14.48-14.22-23.63-9.08-2.36,1.33-4.79,4.69-4.89,7.21-.08,2.18,2.65,5.66,4.92,6.52,6.16,2.33,12.75,3.54,19.15,5.26,4.16,1.12,8.37,2.13,12.42,3.58,8.54,3.07,14,8.89,14.68,18.26.64,8.89-2.37,16.4-9.53,21.9-14.22,10.94-41.05,11.17-55.56.5-6.52-4.8-9.91-11.32-10.55-19.97Z"/>
  <path class="cls-1" d="M826.4,55.45h-32.35v-19.11h88.53v19.02h-32.46v92.36h-23.72V55.45Z"/>
  <path class="cls-1" d="M1246.09,80.15h-11.59v-16.83h11.51c0-3.22-.02-5.97,0-8.72.13-14.1,6.53-21.16,20.64-22.38,4.46-.39,8.98-.04,13.47-.11,2.83-.05,4.28.9,4.1,4.07-.23,3.95-.05,7.93-.05,10.71-5.16,1.43-10.47,1.58-13.72,4.24-2.34,1.92-1.92,7.18-2.88,11.64h16.3v17.14h-14.74v67.8h-23.03v-67.56Z"/>
  <path class="cls-1" d="M1289.35,63.14h22.18v84.56h-22.18V63.14Z"/>
  <path class="cls-1" d="M1107.36,63.13h22.17v84.56h-22.17V63.13Z"/>
  <path class="cls-1" d="M996.52,147.87h-22.16V63.3h22.16v84.57Z"/>
  <path class="cls-1" d="M1490,136.26c.09-7.13,5.61-12.39,12.85-12.25,7.12.14,12.33,5.7,12.14,12.96-.18,6.84-5.65,12.07-12.6,12.03-7.1-.04-12.48-5.57-12.39-12.74Z"/>
  <path class="cls-1" d="M985.18,29.12c6.83-.03,12.66,5.64,12.51,12.16-.15,6.43-5.7,11.68-12.38,11.72-7.12.04-12.37-5.12-12.31-12.07.06-6.59,5.42-11.78,12.18-11.81Z"/>
  <path class="cls-1" d="M1118.05,52.99c-6.9-.07-12.01-5.09-12.05-11.83-.04-6.83,5.47-12.16,12.44-12.05,6.68.11,12.23,5.51,12.25,11.92.03,6.58-5.72,12.02-12.64,11.95Z"/>
  <path class="cls-1" d="M1300.41,52.99c-7.14.07-12.43-5.04-12.4-11.97.03-6.62,5.3-11.82,12.08-11.9,6.85-.08,12.68,5.5,12.6,12.06-.08,6.42-5.62,11.74-12.29,11.81Z"/>
  <path class="cls-1" d="M657.25,212.5c-.11,12.77-3.62,24.73-9.65,35.64-4.85,8.77-13.37,13.52-23.22,15.78-14.02,3.22-26.09-1.16-36.34-10.23-3.69-3.27-6.24-8.59-7.72-13.46-3.37-11.12-6.12-22.71-3.14-34.27,3.78-14.63,8.59-28.99,22.19-38.06,13.51-9.01,28.87-4.41,39.06,4.32,9.05,7.75,14.99,18.12,17.75,29.92.78,3.35.73,6.9,1.06,10.36ZM651.31,212c-.31-2.4-.54-5.37-1.11-8.27-2.07-10.49-7.35-19.46-15.18-26.36-11.46-10.1-26.66-11.79-37.86.06-6.84,7.24-10.45,16.5-13.11,25.96-2.31,8.22-.95,16.56-.25,24.95,1.14,13.6,7.07,23.01,19.92,28.28,13.18,5.41,32.83,0,38.9-11.67,5.24-10.08,7.84-21,8.69-32.95Z"/>
  <path class="cls-1" d="M595.99,216.52c.05-9.38,2.75-17.88,8.67-25.22,8.7-10.78,23.28-11.64,33.14-2.05,14.16,13.77,14.63,39.8.99,54.09-10.53,11.03-27.11,9.4-35.87-3.48-4.79-7.05-7.02-14.84-6.94-23.34Z"/>
</svg>